<?xml version="1.0" encoding="utf-8"?>
<!-- Generator: Adobe Illustrator 24.0.2, SVG Export Plug-In . SVG Version: 6.00 Build 0)  -->
<svg version="1.1" id="Layer_1" xmlns="http://www.w3.org/2000/svg" xmlns:xlink="http://www.w3.org/1999/xlink" x="0px" y="0px"
	 viewBox="0 0 158 122" style="enable-background:new 0 0 158 122;" xml:space="preserve">
<style type="text/css">
	.st0{fill:#BAB3D2;}
	.st1{fill:#A09DB0;}
	.st2{fill:#606060;}
	.st3{fill:#868589;}
</style>
<circle class="st0" cx="30" cy="30" r="29"/>
<g>
	<path class="st1" d="M17.3,42V13.1h14.6c3,0,5.3,0.8,6.7,2.3s2.1,3.3,2.1,5.3c0,1.4-0.4,2.7-1.2,3.9c-0.8,1.2-2,2-3.6,2.4
		c3.7,0.9,5.6,3.1,5.6,6.7c0,2.1-0.7,4-2,5.7C38.1,41.1,35.3,42,31,42L17.3,42L17.3,42z M25.4,24.2h4.1c1,0,1.8-0.3,2.2-0.8
		s0.6-1.1,0.6-1.7c0-1.6-1-2.4-3-2.4h-3.9V24.2z M25.4,35.5h4.3c1.1,0,1.9-0.3,2.3-0.8c0.5-0.5,0.8-1.1,0.8-1.8s-0.2-1.3-0.7-1.8
		c-0.5-0.6-1.4-0.8-2.7-0.8h-4V35.5z"/>
</g>
<circle class="st0" cx="91.9" cy="30" r="29"/>
<g>
	<path class="st1" d="M97.4,44.2l-1.6-5.7h-7.7l-1.7,5.7h-7.2l8.9-28.8h9.3l9,28.8H97.4z M89.6,32.2h4.7l-2.3-8.4L89.6,32.2z"/>
</g>
<circle class="st2" cx="30" cy="90" r="29"/>
<g>
	<path class="st3" d="M18.3,102V73.1h14.6c3,0,5.3,0.8,6.7,2.3s2.1,3.3,2.1,5.3c0,1.4-0.4,2.7-1.2,3.9c-0.8,1.2-2,2-3.6,2.4
		c3.7,0.9,5.6,3.1,5.6,6.7c0,2.1-0.7,4.1-2,5.7c-1.3,1.7-4.1,2.5-8.4,2.5L18.3,102L18.3,102z M26.4,84.2h4.1c1,0,1.8-0.3,2.2-0.8
		s0.6-1.1,0.6-1.7c0-1.6-1-2.4-3-2.4h-3.9V84.2z M26.4,95.6h4.3c1.1,0,1.8-0.3,2.3-0.8s0.8-1.1,0.8-1.8s-0.2-1.3-0.7-1.8
		c-0.5-0.6-1.4-0.8-2.7-0.8h-4V95.6z"/>
</g>
<circle class="st2" cx="91.9" cy="90" r="29"/>
<g>
	<path class="st3" d="M97.4,104.2l-1.6-5.7h-7.7l-1.7,5.7h-7.2l8.9-28.8h9.3l9,28.8H97.4z M89.6,92.2h4.7l-2.3-8.4L89.6,92.2z"/>
</g>
<ellipse transform="matrix(0.2588 -0.9659 0.9659 0.2588 75.1543 157.7945)" class="st0" cx="140.4" cy="29.9" rx="13.2" ry="13.8"/>
<ellipse transform="matrix(0.2588 -0.9659 0.9659 0.2588 15.2682 203.7446)" class="st2" cx="140.4" cy="91.9" rx="13.2" ry="13.8"/>
</svg>
