<?xml version="1.0" encoding="utf-8"?>
<!-- Generator: Adobe Illustrator 24.0.2, SVG Export Plug-In . SVG Version: 6.00 Build 0)  -->
<svg version="1.1" id="Layer_1" xmlns="http://www.w3.org/2000/svg" xmlns:xlink="http://www.w3.org/1999/xlink" x="0px" y="0px"
	 viewBox="0 0 962.5 556.9" style="enable-background:new 0 0 962.5 556.9;" xml:space="preserve">
<style type="text/css">
	.st0{fill:#625291;}
	.st1{fill:#544388;}
	.st2{fill:#353A35;}
	.st3{fill:#1D1D1E;}
	.st4{fill-rule:evenodd;clip-rule:evenodd;fill:#1D1D1E;}
	.st5{fill:#D6CFE5;}
	.st6{fill:#ADADAD;}
	.st7{fill:#5D527B;}
	.st8{fill:#0B9344;}
	.st9{fill:#836EA7;}
	.st10{fill:#343237;}
	.st11{fill:#BAB3D2;}
	.st12{fill:#A09DB0;}
	.st13{fill:#1E1D1F;}
	.st14{fill:#23212A;}
	.st15{fill:#030303;}
	.st16{fill:#A6A3B8;}
</style>
<g>
	<g>
		<g>
			<path class="st0" d="M921.4,85.2c1.4,6.7,2.8,13.3,4.2,20c3.3,7.6,3.2,15.9,4.3,24c4.3,32.2,8.1,64.4,11.7,96.7
				c4.2,36.9,8.6,73.7,12.5,110.6c1.8,17.5,4.3,35,4,52.7c-0.5,34.9-22.1,66.6-54.5,79.1c-2.7,1-5.5,1.3-8.2,1.8
				c-12.9,2.5-25.3,6.7-37.8,10.5c-43.3,13.2-86.3,27.1-128,44.8c-14.1,6-29.4,7.9-44.3,10.7c-23.5,4.4-47.1,7.9-70.8,10.8
				c-20.1,2.5-40.2,4.7-60.4,6.5c-27.9,2.5-55.8,4-83.7,3.5c-23.8-0.4-47.5-2.1-71.1-4.4c-26.1-2.5-52.2-5.5-78.1-9.4
				c-27.7-4.1-55.6-7.7-82.3-16.1c-16.1-5-31.4-12.4-47.3-18.2C152,494.3,112,482,71.7,470.7c-1.3-0.3-2.6-0.5-3.9-0.7
				c-18-3.4-32.1-13.5-43.4-27.3c-13.1-16-18.9-34.9-19.3-55.6c-0.4-21.9,3.4-43.4,5.6-65.1c3.2-31.1,6.9-62.2,10.5-93.3
				c2.7-23.5,5.5-47,8.3-70.4c1.8-14.7,3.6-29.4,5.6-44.1c0.4-3.1,0.4-6.4,2.3-9.1c1.4-6.6,2.8-13.3,4.2-20
				c0.5-10,11.3-21.6,22.6-23.6c20.3-3.6,40.5-7.6,60.5-12.9c23.4-6.1,46.2-13.6,67.7-25c6.2-3.3,12.7-5.7,19-8.7
				c2.3-1.1,4.8-1.1,7.2-1.8c13.3-4,26.3-9.2,40.1-11.5c4.6-0.8,9.1-1.6,13.8-1.6C407.1,0.2,541.5,0.4,676,0
				c20.8-0.1,40.5,3.7,59.9,10.6c2.8,1,5.7,1.8,8.5,2.7c7.8,0.8,14.6,4.6,21.2,8.2c40.5,21.6,84.6,31.6,129.3,39.3
				c12.3,2.1,20,8.8,25.5,19.2C921.1,81.6,921.9,83.3,921.4,85.2z"/>
			<path class="st1" d="M478.7,542.1c-9.7,0-19.4,0.5-29-0.1c-16.5-1-33-1.7-49.5-3.7c-11.3-1.4-22.7-2-34.1-3.2
				c-11.2-1.2-22.4-2.5-33.5-4.2c-16.4-2.4-32.6-5.3-49-7.7c-22.4-3.4-44-9.2-65-17.8c-28.3-11.6-57.6-20.3-86.8-29.5
				c-21.8-6.9-44.5-11.3-65.7-19.9c-27.3-11.1-43.3-31.8-48.8-60.9c-2.9-15.2-1.1-30,0.9-44.9c1.3-10,2.1-20.1,3.3-30.1
				c1.2-10.2,2.5-20.3,3.7-30.5c1.1-9.7,2.2-19.4,3.3-29.1c1.6-13.1,3.2-26.2,4.8-39.4c1.5-12.3,2.5-24.7,4.3-37
				c1.7-11.9,2.5-24,4.6-35.9c2.3-13,3.5-26.2,5.4-39.3c1.2-8.6,3.4-16.8,8.6-24.1c5.1-7.2,12.2-10.5,20.5-11.7
				c28.4-4.2,56.2-11,83.6-19.5c16.1-5,31.1-12.6,46.3-19.6c21.1-9.6,42.9-16.8,65.9-19.9c1.6-0.2,3.3-0.1,5-0.1
				c131.8,0,263.6,0.1,395.4-0.1c15.5,0,30.3,2.9,44.9,7.4c18.2,5.6,35.4,13.4,52.5,21.6c20.6,9.8,42.6,15.7,64.7,21.1
				c17,4.1,34.3,7.2,51.6,10.3c9.1,1.6,14.6,8.7,18.6,16.6c3.6,7.2,4.8,15.1,6,23c1.8,11.6,3.3,23.2,4.8,34.9
				c1.6,12.6,2.8,25.3,4.3,38c1,8.5,2.2,17.1,3.2,25.6c1.3,10.5,2.5,21,3.8,31.5c1.6,13,3.2,25.9,4.7,38.9c1.2,10,2.2,20.1,3.3,30.1
				c1.2,10.2,2.5,20.3,3.6,30.5c2,18.9,5.3,37.6,0.5,56.7c-7.4,29.2-25.2,48.7-53.5,58.1c-24.1,8-48.8,14-73,21.8
				c-22,7.1-44.2,13.5-65.6,22.3c-25.6,10.6-51.8,18-79.2,22.1c-19.4,2.9-38.9,6.1-58.4,8.5c-13.5,1.7-27,3-40.4,4.4
				c-19.1,2-38.3,3.2-57.4,4.6C501.1,542.8,489.9,542.1,478.7,542.1C478.7,542.1,478.7,542.1,478.7,542.1z"/>
			<path d="M481.9,495.3c-45.8,0.3-90.9-5.6-135.8-13.7c-26.2-4.7-52-10.8-78-16.4c-23.9-5.1-36.3-20.4-41.4-43.2
				c-3.4-15-1.7-30.1-0.8-45.2c0.7-12.5,1.8-24.9,2.6-37.3c2.3-35.8,4.6-71.7,6.9-107.5c1.2-18.4,1.9-36.9,3.4-55.3
				c1.7-22.5,1.9-45.2,5-67.6c2.6-19.3,15.9-34,33.2-36.6c11.2-1.6,22.5-2.3,33.8-3.2c29.2-2.2,58.4-3.6,87.7-4.5
				c12-0.4,24-0.4,35.9-0.8c25.5-1,50.9-1,76.4-0.6c26.1,0.4,52.2,1,78.4,2c25.9,1.1,51.8,2.4,77.7,5c8.7,0.9,17.7,0.5,26.1,3.6
				c17.7,6.6,25.5,20.6,27.6,38.3c1.6,13.4,2.1,26.9,3,40.3c2,30.5,4,61.1,5.9,91.6c1,15.8,2,31.5,3,47.3
				c2.1,33.9,4.3,67.7,6.3,101.6c0.7,12.5,0.1,24.9-3.8,37c-6.2,18.9-18.6,30.5-38.1,34.9c-36.5,8.3-73,16.3-110,21.9
				c-23.3,3.5-46.8,6.2-70.4,7.6C504.8,495,493.4,495.2,481.9,495.3z"/>
			<path class="st2" d="M482,389.3c-66.5,0-133,0-199.4,0.1c-4.3,0-6-0.8-5.9-5.6c0.3-28.6-0.2-57.3,0.5-86c1-42.3,0.1-84.6,1-126.9
				c0.4-19.3,0.5-38.6,0.5-57.9c0-4.6,1.5-5.4,5.7-5.4c115.3,0.1,230.6,0.1,345.9,0.1c17,0,34,0.1,51-0.1c3.4,0,4.7,0.8,4.6,4.4
				c-0.2,7.7,0,15.3,0,23c0.3,50,0.3,99.9,1.2,149.9c0.6,32.8,0.3,65.6,0.9,98.4c0.1,4.7-1,6.1-5.9,6.1
				C615.3,389.3,548.6,389.3,482,389.3z"/>
			<g>
				<path class="st3" d="M757.2,381.5c-2.4,0.1-4.2-0.1-4.5-2.5c-0.4-3,1.9-3.6,4-4.1c15.6-3.8,31.3-7.5,46.9-11.2
					c16.6-3.9,33.3-7.8,49.9-11.6c2.5-0.6,5.3-1.6,6.1,1.9c0.8,3.4-1.8,4-4.4,4.6c-31.8,7.5-63.6,15.1-95.4,22.6
					C758.9,381.4,757.8,381.4,757.2,381.5z"/>
				<path class="st3" d="M757.3,421.5c-2.3,0.1-4.2,0-4.6-2.4c-0.5-3,1.7-3.6,3.9-4.2c13.2-3.2,26.5-6.3,39.7-9.4
					c19-4.5,38.1-9,57.2-13.4c2.4-0.6,5.2-1.7,6.2,1.8c0.9,3.4-1.7,4.1-4.3,4.7c-31.8,7.5-63.6,15.1-95.4,22.6
					C758.9,421.4,757.9,421.4,757.3,421.5z"/>
				<path class="st3" d="M757.5,441.5c-2.3,0.1-4.3,0-4.7-2.3c-0.6-3.3,2-3.8,4.3-4.4c17.4-4.2,34.9-8.2,52.3-12.3
					c14.7-3.5,29.4-6.9,44.1-10.4c2.4-0.6,5.3-1.8,6.2,1.7c1,3.7-2,4.2-4.7,4.8c-31.7,7.5-63.3,15-94.9,22.5
					C759,441.3,758,441.4,757.5,441.5z"/>
				<path class="st3" d="M757.5,361.5c-2.3,0.1-4.3,0-4.7-2.3c-0.6-3.3,2-3.8,4.3-4.4c17.4-4.2,34.9-8.2,52.3-12.3
					c14.7-3.5,29.4-6.9,44.1-10.4c2.4-0.6,5.3-1.8,6.2,1.7c1,3.7-2,4.2-4.7,4.9c-31.7,7.5-63.3,15-94.9,22.5
					C759,361.3,758,361.4,757.5,361.5z"/>
				<path class="st3" d="M757.6,401.5c-2.8,0.1-4.6-0.2-4.9-2.6c-0.4-3,2-3.5,4.1-4c15.5-3.7,31-7.4,46.5-11.1
					c16.8-4,33.6-7.9,50.4-11.8c2-0.5,4-1.2,5.5,0.7c1.9,2.2,0.3,4.9-3.6,5.8c-18.2,4.4-36.5,8.6-54.7,13
					c-13.4,3.2-26.8,6.3-40.2,9.5C759.4,401.2,758.1,401.4,757.6,401.5z"/>
			</g>
			<g>
				<path class="st3" d="M526.1,21.6h-90.2c-9.5,0-16,6.8-16,15.1s6.4,15,16,15h90.1c9.6,0,16-6.8,16-15
					C542.1,28.4,535.6,21.5,526.1,21.6z M526.1,47.9H436c-7.6,0-12.2-5.1-12.2-11.3s4.6-11.3,12.2-11.3h90.1
					c7.6,0,12.2,5.1,12.2,11.3C538.3,42.9,533.7,48,526.1,47.9z"/>
				<polygon class="st4" points="432.1,29.5 436.5,29.5 442.6,39.4 442.6,29.5 447,29.5 447,43.6 442.6,43.6 436.5,33.8 436.5,43.6 
					432.1,43.6 				"/>
				<polygon class="st4" points="470.8,31 475,31 475,32.9 477.3,32.9 477.3,34.3 475,34.3 475,43.6 470.8,43.6 470.8,34.3 
					468.5,34.3 468.5,32.9 470.8,32.9 				"/>
				<polygon class="st4" points="449.4,34.2 453.7,34.2 453.7,43.6 449.4,43.6 				"/>
				<polygon class="st4" points="449.4,29.5 453.7,29.5 453.7,32.4 449.4,32.4 				"/>
				<path class="st4" d="M525.7,38.9c0,0,0,1.4,0,2c0,1.5-0.9,2.1-1.7,2.1s-1.7-0.6-1.7-2.1c0-0.6,0-2,0-2s0-1.4,0-2
					c0-1.5,0.9-2.1,1.7-2.1s1.7,0.6,1.7,2.1C525.7,37.4,525.7,38.5,525.7,38.9L525.7,38.9L525.7,38.9L525.7,38.9z M524,33.6
					c-3.4,0-6.2,2.4-6.2,5.3s2.8,5.3,6.2,5.3c3.4,0,6.2-2.4,6.2-5.3C530.2,36,527.5,33.6,524,33.6L524,33.6z"/>
				<path class="st4" d="M512.2,29.5h4.2v14.1h-4.2c0,0,0-0.5,0-0.5c-1.6,1-3.5,1-4.9,0.4c-0.4-0.2-2.9-1.4-2.9-4.7
					c0-2.5,2.3-5.2,5.4-4.9c1,0.1,1.7,0.5,2.4,0.8C512.2,32.5,512.2,29.5,512.2,29.5L512.2,29.5L512.2,29.5z M512.2,38.9
					c0,0,0-1.2,0-1.7c0-1.4-1-1.8-1.7-1.8c-0.7,0-1.7,0.4-1.7,1.8c0,0.5,0,1.7,0,1.7s0,1.2,0,1.7c0,1.5,1,1.8,1.7,1.8
					c0.7,0,1.7-0.4,1.7-1.8C512.2,40,512.2,38.9,512.2,38.9L512.2,38.9z"/>
				<path class="st4" d="M463.6,33.8c1.6,0,4.8,1,4.8,4.7c0,0.7,0,5.1,0,5.1h-4.2c0,0,0-5.6,0-6.2c0-0.8-0.8-1.7-1.9-1.7
					s-2,0.9-2,1.7c0,0.4,0,6.2,0,6.2H456v-9.4h4.2c0,0,0,0.8,0,1C461.1,34.4,462.2,33.8,463.6,33.8L463.6,33.8z"/>
				<path class="st4" d="M498.2,33.8c1.6,0,4.8,1,4.8,4.7c0,0.7,0,5.1,0,5.1h-4.2c0,0,0-5.6,0-6.2c0-0.8-0.8-1.7-1.9-1.7
					s-2,0.9-2,1.7c0,0.4,0,6.2,0,6.2h-4.2v-9.4h4.2c0,0,0,0.8,0,1C495.7,34.4,496.8,33.8,498.2,33.8L498.2,33.8z"/>
				<path class="st4" d="M481.3,37.5c0-0.8,0-1.4,0.3-1.9c0.3-0.6,0.9-0.9,1.5-0.9l0,0c0.6,0,1.2,0.3,1.5,0.9c0.3,0.5,0.3,1,0.3,1.9
					H481.3L481.3,37.5L481.3,37.5z M484.8,40.4c0,0,0,0,0,0.6c0,1.7-1.1,2.1-1.8,2.1s-1.8-0.4-1.8-2.1c0-0.5,0-1.9,0-1.9h8
					c0-2.9-2.8-5.3-6.3-5.3c-3.5,0-6.3,2.4-6.3,5.3c0,2.9,2.8,5.3,6.3,5.3c2.9,0,5.3-1.6,6-3.9H484.8L484.8,40.4z"/>
				<path class="st4" d="M530.5,32.9H530v-3.2h1.2c0.8,0,1.1,0.3,1.1,0.9c0,0.6-0.4,0.8-0.8,0.9l0.9,1.4H532l-0.8-1.4h-0.6
					L530.5,32.9L530.5,32.9L530.5,32.9z M531.1,31c0.4,0,0.8,0,0.8-0.5c0-0.4-0.4-0.5-0.7-0.5h-0.7v1L531.1,31L531.1,31z"/>
				<path class="st4" d="M528.3,31.2c0-1.6,1.3-2.8,2.8-2.8c1.5,0,2.8,1.2,2.8,2.8c0,1.6-1.3,2.8-2.8,2.8
					C529.6,34,528.3,32.9,528.3,31.2L528.3,31.2L528.3,31.2z M531.1,33.6c1.3,0,2.3-1,2.3-2.3c0-1.3-1-2.3-2.3-2.3
					c-1.3,0-2.3,1-2.3,2.3C528.8,32.6,529.8,33.6,531.1,33.6L531.1,33.6z"/>
			</g>
		</g>
		<g>
			<path class="st5" d="M37.5,105.2c-1.8,14.5-3.6,29-5.3,43.5c-2.5,21.1-5.1,42.2-7.6,63.3c-2.9,24.9-5.8,49.8-8.7,74.8
				c-2.5,22.1-4.9,44.3-7.4,66.4c-1.4,12.1-2.8,24.1-2.2,36.3c2,38.4,22.6,66.3,58.7,79.3c0.9,0.3,1.8,0.8,2.7,1.2
				c-15.9,0.6-29.9-3.2-40.5-16.3c-6.8-8.4-12.6-17.5-18.1-26.7c-4.6-7.8-6.1-16.7-7.6-25.6c-1.5-8.7-1.7-17.6-1.5-26.2
				c0.3-13.3,0.3-26.8,2.3-40.1c1.3-8.6,1.4-17.5,2.3-26.2c1.1-11.5,2.5-23,3.7-34.5c1.1-10.2,2.1-20.4,3.3-30.6
				c1.1-10,2.4-20,3.6-30c1.1-9.4,2.2-18.7,3.4-28c1.6-12.5,3.3-24.9,4.7-37.4c1.3-10.7,2-21.4,4.4-31.9
				C29,111.3,31.5,106.6,37.5,105.2z"/>
			<path class="st5" d="M895.3,470c12.1-4.7,23.9-10,33.6-19c19.2-17.6,27.2-40,27.8-65.6c0.4-18.2-2.9-36.1-4.8-54.1
				c-2.2-22.1-5-44.3-7.5-66.4c-2.5-21.9-5.1-43.9-7.7-65.8c-2.7-23.1-5.5-46.2-8.3-69.3c-1-8.2-2-16.5-3-24.7
				c6.4,2.7,9,8.3,9.8,14.6c2.2,16.4,4.1,32.8,6.2,49.1c2.2,17.5,4.7,35,6.8,52.5c1.6,13.1,2.7,26.3,4.2,39.4
				c1.5,13.8,3.3,27.5,4.8,41.3c0.8,7.4,1.6,14.8,2.1,22.2c1.2,18.5,3.8,37,2.9,55.5c-0.8,16.4-0.9,33.3-9.8,48.2
				c-7.7,12.8-14.7,26.3-27.5,34.8C916.3,468.7,906.1,471.4,895.3,470z"/>
		</g>
		<g>
			<path d="M376.6,450c-0.6,1.3-1.3,2.6-1.8,4c-0.4,1.2-1.1,1.4-2.3,1.4c-3.4,0-6.9,0.1-10.3,0.2c-6.1,0.1-11-2.1-13.7-7.7
				c-2.7-5.7-1.6-11.3,2.3-16.1c4.8-6,13.4-8.3,21.1-5.9c0.9,0.3,1.8,0.8,2.5-0.3c0.1-0.2,0.6-0.2,1-0.2c3,0,6.1,0,9.1,0.1
				c0.5,0,1.2,0.7,1.4,1.2c0.4,1,0.4,2.1,0.6,3.2c0.2,0,0.3,0.1,0.5,0.1c0.4-1.1,0.8-2.2,1.1-3.3c0.3-0.9,0.7-1.3,1.8-1.3
				c17.3,0,34.5,0,51.8,0c2.6,0,4.8,0.9,6.6,2.8c0.3,0.3,0.6,0.6,0.9,0.9c0.1,0,0.2,0,0.3-0.1c4-3.6,8.9-3.8,13.9-3.7
				c7.9,0.2,15.9,0,23.8,0c0.7,0,1.3,0,2.3,0c-0.6,1.1-1,2-1.7,3.2c0.9,0,1.5,0,2.1,0c11.9,0,23.8,0,35.7,0c1.3,0,2,0.4,2.6,1.5
				c0.8,1.5,1.7,3,2.8,4.9c1-1.9,1.9-3.5,2.7-5.1c0.4-0.9,1-1.2,2-1.2c7.9,0,15.7,0,23.6,0.1c0.8,0,1.6,0.4,2.3,0.8
				c1.8,1.3,3.5,2.7,5.7,4.3c0-1.9,0-3.5,0-5.1c16.5,0,32.8,0,49.2,0c0,7.6,0,15.2,0,23c-0.6,0-1.2,0.1-1.8,0.1
				c-13.9,0-27.9,0-41.8,0c-1.1,0-2.4-0.6-3.3-1.2c-1.7-1.1-3.3-2.5-5.3-4c0,1.9,0,3.5,0,5.3c-0.8,0-1.5,0-2,0
				c-10.8,0-21.7,0-32.5,0c-1.7,0-2.8-0.5-3.5-2c-0.3-0.7-0.8-1.3-1.4-2.2c-4.3,4.3-9.7,4.1-15,4.1c-9.8,0-19.7,0-29.5,0
				c-2.5,0-3.6,0.8-4.1,3.2c-3.9,0-7.9,0-12,0c-0.1-0.5-0.1-1-0.2-1.6c-5.7,3.3-11,2.8-15.9-1.7c-0.4,0.3-0.8,0.5-1.1,0.8
				c-2.2,1.8-4.8,2.7-7.6,2.6c-8.6-0.1-17.2-0.1-25.8-0.1c-11.2,0-22.5,0-33.7,0.2c-1.5,0-2.1-0.4-2.2-1.9c0-1.2-0.4-2.3-0.6-3.4
				C376.8,450,376.7,450,376.6,450z M385.7,445.4c-0.1,0-0.2,0-0.3,0c-0.1-0.4-0.2-0.8-0.3-1.3c-0.6-3.7-1.2-7.3-1.9-11
				c-0.3-1.4-0.2-3.3-1.1-4c-1-0.7-2.8-0.3-4.3-0.2c-0.6,0.1-1.5,0.6-1.7,1.1c-1.4,2.8-2.6,5.6-3.8,8.4c-1.1,2.4-2.1,4.7-3.2,7.1
				c-0.1,0-0.2-0.1-0.3-0.1c0.2-1.7,0.5-3.4,0.7-5.3c-0.7,0-1.3,0-1.8,0c-2.3,0-4.6,0-7,0c-0.2,1.5-0.4,2.9-0.7,4.4
				c1.2,0.1,2.3,0.1,3.7,0.2c-0.5,0.8-0.7,1.6-1.1,1.8c-3.9,1.3-7.6-2.1-6.7-6.2c0.7-3.4,3.7-6.2,7.8-6.7c2.3-0.3,4.6,0,7.1,0
				c0.1-0.9,0.3-2,0.5-3.1c0.2-1-0.2-1.5-1.1-1.6c-2.1-0.2-4.2-0.6-6.3-0.5c-5.1,0.4-11.6,4.1-12.8,10.5c-1.1,6.1,1.4,10.7,7.1,12.3
				c2.9,0.8,5.7,0.4,8.2-0.7c0.5,0.3,0.9,0.7,1.3,0.8c3.9,0.4,3.9,0.4,5.5-3.1c0.1-0.2,0.2-0.3,0.2-0.5c0.6-2.8,2.4-3.5,5-3.2
				c0.9,0.1,1.4,0.2,1.5,1.3c0.2,1.8,0.6,3.6,1,5.5c2.2,0,4.2-0.1,6.2,0c1.5,0.1,2-0.4,2.4-1.8c0.9-3.2,2-6.2,3-9.4
				c0.9,3,1.6,6,2.1,9c0.3,1.6,0.8,2.3,2.6,2.2c1-0.1,1.5-0.3,1.9-1.3c0.5-1.4,1.1-2.7,1.7-4c1-2.4,2.1-4.8,3.1-7.1
				c0.1,0,0.2,0.1,0.3,0.1c0.2,4,0.4,8.1,0.6,12.2c6.1,0,12.1,0,18,0c0.3-1.7,0.5-3.2,0.8-5c-2.8,0-5.3,0-8,0
				c0.2-1.3,0.4-2.4,0.6-3.7c2.4,0,4.6,0,6.9,0c0.3-1.7,0.5-3.3,0.8-5c-2.5,0-4.7,0-7,0c0.2-1.3,0.4-2.5,0.6-3.8c2.8,0,5.4,0,8,0
				c0.3-1.7,0.5-3.2,0.8-5c-4,0-7.8,0-11.6,0c-1.1,0-1.5,0.4-1.7,1.5c-0.7,4.9-1.5,9.8-2.3,14.8c-0.2,1.5-0.5,2.9-0.8,4.4
				c-0.1,0-0.2,0-0.3-0.1c-0.3-6.8-0.6-13.6-0.9-20.6c-1.6,0-3.1,0.1-4.5,0c-1-0.1-1.6,0.3-1.9,1.2c-0.4,1.1-0.9,2.1-1.3,3.1
				c-1,2.2-1.9,4.5-2.9,6.7c-0.8-2.7-1.3-5.4-1.8-8.1c-0.7-3.4,0.1-2.8-3.5-3c-1.5-0.1-2.1,0.5-2.5,1.9
				C388.9,435.8,387.3,440.6,385.7,445.4z M493.8,437.1c2,3.5,3.8,6.8,5.8,10.1c0.3,0.5,0.8,1,1.3,1c5.2,0,10.4,0.2,15.5-0.2
				c5.2-0.4,7.1-2.9,7.4-8c0-0.1,0.1-0.2,0.3-0.3c1.6,2.5,3.1,5.1,4.7,7.6c1,1.6,3.7,1.6,4.7-0.1c2.5-4.3,5-8.6,7.5-12.9
				c0.3-0.5,0.5-1.1,0.8-1.8c-1.2,0-2.2,0.1-3.1,0c-1.5-0.2-2.3,0.4-3,1.7c-1.3,2.7-2.9,5.3-4.5,8.1c-1.4-2.4-3-4.4-3.8-6.6
				c-1.2-3.1-3.4-3.6-6.3-3.2c-0.5,0.1-1,0.5-1.6,0.8c-5-1.6-10.3-0.5-15.8-0.9c0,4.2,0,8,0,11.9c-2.4-3.5-4.6-7-6.8-10.5
				c-1.2-1.9-4.7-2-5.8-0.1c-2.3,3.8-4.6,7.6-6.8,11.4c-0.6,1-1.1,2-1.7,3.1c4,0,7.7,0,11.4,0c0-1.3,0-2.4,0-3.6c-1.4,0-2.6,0-4.2,0
				C491.1,442,492.4,439.6,493.8,437.1z M560.5,439.4c0.6,0.4,1.1,0.6,1.4,0.9c2.8,2.2,5.7,4.4,8.4,6.8c1.6,1.4,3.1,1.4,5,1.1
				c0-5.3,0-10.5,0-15.7c-1.5,0-2.8,0-4.4,0c0,2.9,0,5.7,0,8.8c-3.5-2.7-6.8-5-9.8-7.6c-1.6-1.3-3.2-1.5-5.2-1.2c0,3.9,0,7.7,0,12
				c-0.6-0.9-0.9-1.3-1.2-1.8c-1.9-3.1-3.8-6.3-5.7-9.3c-1-1.5-4.7-1.5-5.6,0c-2.7,4.5-5.4,9.1-8.1,13.6c-0.2,0.3-0.3,0.7-0.5,1.1
				c3.9,0,7.6,0,11.3,0c0-1.3,0-2.4,0-3.6c-1.3,0-2.6,0-4.2,0c1.4-2.6,2.7-4.8,4.1-7.4c2,3.5,3.8,6.7,5.6,9.8
				c0.3,0.5,0.9,1.2,1.3,1.3c2.5,0.1,4.9,0.1,7.5,0.1C560.5,445.2,560.5,442.4,560.5,439.4z M433.2,429.3
				c-1.2,7.5-2.4,14.8-3.6,22.3c3.5,0,6.7,0,9.9,0c3.2,0,5.7-1.5,7.2-4.2c1.4-2.6,0.7-5.1-1.3-7.3c0.6-0.8,1.2-1.6,1.6-2.4
				c1.9-3.5-0.5-8.1-4.4-8.4C439.6,429.1,436.5,429.3,433.2,429.3z M467.3,439.5c0-0.3,0-0.7,0-1c-0.5-3.9-1.9-7.2-5.8-8.8
				c-3.7-1.5-7.4-0.4-10.4,2.7c-3.4,3.6-4.4,9.8-2.3,14.3c2.5,5.4,8.4,7,13.3,3.5C465.8,447.7,467.3,443.9,467.3,439.5z
				 M594.6,438.4c0-1,0-1.7,0-2.5c-0.1-2.3-1.1-3.5-3.4-3.5c-3.8-0.1-7.5-0.1-11.3,0c-2.2,0.1-3.3,1.1-3.4,3.2
				c-0.1,3.1-0.1,6.3,0,9.4c0,1.9,1,3.1,2.9,3.1c4.1,0.1,8.2,0.1,12.3,0c1.3,0,2.5-0.7,2.7-2.1c0.2-1.3,0.2-2.7,0.3-4.1
				c-1.8,0-3.3,0-4.8,0c-0.1,0.8-0.2,1.4-0.2,2.1c-2.8,0-5.5,0-8.2,0c0-2.6,0-5.1,0-7.5c2.8,0,5.5,0,8.2,0c0.1,0.7,0.2,1.3,0.3,1.9
				C591.5,438.4,592.9,438.4,594.6,438.4z M612.7,436.2c0-1.3,0-2.5,0-3.7c-5.7,0-11.3,0-16.8,0c0,5.3,0,10.5,0,15.6
				c5.8,0,11.4,0,17,0c0-1.3,0-2.5,0-3.8c-4.1,0-8.1,0-12.2,0c0-0.8,0-1.5,0-2.4c2.3,0,4.6,0,6.9,0c0-1.4,0-2.5,0-3.8
				c-2.3,0-4.6,0-6.8,0c0-0.7,0-1.2,0-1.9C604.8,436.2,608.7,436.2,612.7,436.2z M473.1,451.5c0.1-0.9,0.3-1.7,0.4-2.5
				c0.6-3.7,0.9-7.4,3.4-10.5c2-2.4,3.4-5.3,5.1-7.9c0.3-0.4,0.4-0.8,0.8-1.5c-1.1,0-1.9,0.1-2.6,0c-2.2-0.3-3.7,0.4-4.6,2.5
				c-0.7,1.5-1.7,2.8-2.8,4.4c-0.9-2.1-1.5-3.9-2.3-5.7c-0.2-0.4-0.5-1-0.9-1.1c-1.6-0.1-3.3,0-5.2,0c0.3,0.8,0.4,1.2,0.6,1.7
				c1.3,2.9,2.8,5.8,4,8.7c0.4,1,0.6,2.3,0.5,3.4c-0.3,2.9-0.9,5.7-1.4,8.7C469.9,451.5,471.4,451.5,473.1,451.5z"/>
			<path class="st6" d="M385.7,445.4c1.6-4.8,3.2-9.7,4.7-14.5c0.4-1.4,1-2,2.5-1.9c3.6,0.2,2.8-0.5,3.5,3c0.5,2.7,1,5.3,1.8,8.1
				c1-2.2,1.9-4.5,2.9-6.7c0.5-1,0.9-2,1.3-3.1c0.3-0.9,0.9-1.3,1.9-1.2c1.4,0.1,2.9,0,4.5,0c0.3,7,0.6,13.8,0.9,20.6
				c0.1,0,0.2,0,0.3,0.1c0.3-1.5,0.6-2.9,0.8-4.4c0.8-4.9,1.6-9.8,2.3-14.8c0.2-1.1,0.5-1.5,1.7-1.5c3.8,0.1,7.6,0,11.6,0
				c-0.3,1.8-0.5,3.3-0.8,5c-2.6,0-5.1,0-8,0c-0.2,1.3-0.4,2.4-0.6,3.8c2.3,0,4.5,0,7,0c-0.3,1.8-0.5,3.3-0.8,5c-2.3,0-4.5,0-6.9,0
				c-0.2,1.3-0.4,2.4-0.6,3.7c2.7,0,5.2,0,8,0c-0.3,1.7-0.5,3.3-0.8,5c-6,0-11.9,0-18,0c-0.2-4.1-0.4-8.1-0.6-12.2
				c-0.1,0-0.2-0.1-0.3-0.1c-1,2.4-2.1,4.8-3.1,7.1c-0.6,1.3-1.2,2.7-1.7,4c-0.4,0.9-0.9,1.2-1.9,1.3c-1.7,0.2-2.3-0.5-2.6-2.2
				c-0.5-3-1.2-6-2.1-9c-1,3.1-2.1,6.2-3,9.4c-0.4,1.4-1,1.9-2.4,1.8c-2-0.1-4,0-6.2,0c-0.4-1.9-0.8-3.7-1-5.5
				c-0.1-1-0.6-1.1-1.5-1.3c-2.6-0.4-4.4,0.4-5,3.2c0,0.2-0.1,0.3-0.2,0.5c-1.6,3.5-1.7,3.5-5.5,3.1c-0.4,0-0.8-0.5-1.3-0.8
				c-2.5,1.1-5.3,1.5-8.2,0.7c-5.6-1.6-8.2-6.2-7.1-12.3c1.2-6.4,7.6-10.1,12.8-10.5c2.1-0.2,4.2,0.3,6.3,0.5c1,0.1,1.3,0.7,1.1,1.6
				c-0.2,1.1-0.4,2.2-0.5,3.1c-2.5,0-4.8-0.3-7.1,0c-4.1,0.5-7.1,3.3-7.8,6.7c-0.9,4.1,2.8,7.5,6.7,6.2c0.5-0.2,0.7-1,1.1-1.8
				c-1.5-0.1-2.5-0.1-3.7-0.2c0.2-1.5,0.4-2.9,0.7-4.4c2.4,0,4.7,0,7,0c0.5,0,1.1,0,1.8,0c-0.3,1.9-0.5,3.6-0.7,5.3
				c0.1,0,0.2,0.1,0.3,0.1c1.1-2.4,2.1-4.7,3.2-7.1c1.3-2.8,2.5-5.7,3.8-8.4c0.3-0.5,1.1-1.1,1.7-1.1c1.4-0.1,3.3-0.5,4.3,0.2
				c0.9,0.7,0.9,2.6,1.1,4c0.7,3.6,1.3,7.3,1.9,11c0.1,0.4,0.2,0.9,0.3,1.3C385.5,445.5,385.6,445.5,385.7,445.4z M378.9,440.3
				c-0.2-1-0.3-1.9-0.5-2.8c-0.1,0-0.2,0-0.3-0.1c-0.4,0.9-0.8,1.8-1.3,2.8C377.6,440.3,378.2,440.3,378.9,440.3z"/>
			<path class="st6" d="M493.8,437.1c-1.4,2.5-2.7,4.8-4.1,7.4c1.6,0,2.9,0,4.2,0c0,1.3,0,2.3,0,3.6c-3.7,0-7.4,0-11.4,0
				c0.6-1.1,1.2-2.1,1.7-3.1c2.3-3.8,4.6-7.6,6.8-11.4c1.1-1.9,4.7-1.8,5.8,0.1c2.2,3.5,4.3,7.1,6.8,10.5c0-3.9,0-7.8,0-11.9
				c5.5,0.4,10.8-0.7,15.8,0.9c0.6-0.3,1.1-0.7,1.6-0.8c2.8-0.4,5,0.1,6.3,3.2c0.9,2.3,2.4,4.3,3.8,6.6c1.6-2.9,3.2-5.4,4.5-8.1
				c0.7-1.4,1.5-1.9,3-1.7c0.9,0.1,1.9,0,3.1,0c-0.3,0.8-0.5,1.3-0.8,1.8c-2.5,4.3-5,8.6-7.5,12.9c-1,1.7-3.7,1.7-4.7,0.1
				c-1.6-2.5-3.1-5-4.7-7.6c-0.2,0.2-0.3,0.3-0.3,0.3c-0.3,5.1-2.2,7.6-7.4,8c-5.1,0.4-10.3,0.2-15.5,0.2c-0.4,0-1-0.6-1.3-1
				C497.6,443.9,495.8,440.6,493.8,437.1z M508.5,444.6c2.7-0.3,5.3-0.4,7.8-0.8c1.8-0.3,2.3-1.9,2.3-3.6c0-1.7-0.7-3.2-2.3-3.4
				c-2.5-0.4-5.2-0.4-7.8-0.6C508.5,439,508.5,441.6,508.5,444.6z"/>
			<path class="st6" d="M560.5,439.4c0,3.1,0,5.9,0,9c-2.6,0-5.1,0.1-7.5-0.1c-0.5,0-1-0.7-1.3-1.3c-1.8-3.2-3.6-6.3-5.6-9.8
				c-1.4,2.5-2.7,4.8-4.1,7.4c1.6,0,2.9,0,4.2,0c0,1.3,0,2.4,0,3.6c-3.7,0-7.4,0-11.3,0c0.2-0.4,0.3-0.8,0.5-1.1
				c2.7-4.5,5.4-9.1,8.1-13.6c0.9-1.5,4.7-1.6,5.6,0c1.9,3.1,3.8,6.2,5.7,9.3c0.3,0.5,0.6,0.9,1.2,1.8c0-4.3,0-8.2,0-12
				c2-0.3,3.6-0.2,5.2,1.2c3,2.6,6.3,4.9,9.8,7.6c0-3.1,0-5.9,0-8.8c1.6,0,2.9,0,4.4,0c0,5.2,0,10.4,0,15.7c-1.8,0.3-3.4,0.3-5-1.1
				c-2.7-2.4-5.6-4.5-8.4-6.8C561.6,440,561.2,439.8,560.5,439.4z"/>
			<path class="st6" d="M433.2,429.3c3.3,0,6.4-0.2,9.4,0c3.9,0.3,6.3,4.9,4.4,8.4c-0.4,0.8-1,1.6-1.6,2.4c2,2.1,2.7,4.6,1.3,7.3
				c-1.5,2.8-4,4.2-7.2,4.2s-6.4,0-9.9,0C430.8,444.1,432,436.7,433.2,429.3z M435.5,446.8c1.7,0,3.3,0.2,4.8-0.1
				c0.7-0.2,1.6-1.2,1.8-2c0.2-1.2-0.8-1.8-1.9-1.8c-1.3-0.1-2.6,0-4,0C435.9,444.2,435.7,445.4,435.5,446.8z M436.9,437.9
				c1.3,0,2.5,0.3,3.5-0.1c0.8-0.3,1.7-1.3,1.8-2c0.1-1.1-0.9-1.5-2-1.5c-0.9,0-1.7,0-2.7,0C437.3,435.6,437.1,436.7,436.9,437.9z"
				/>
			<path class="st6" d="M467.3,439.5c-0.1,4.4-1.5,8.2-5.2,10.8c-4.9,3.4-10.7,1.8-13.3-3.5c-2.1-4.5-1.1-10.7,2.3-14.3
				c3-3.2,6.7-4.2,10.4-2.7c3.9,1.6,5.3,4.9,5.8,8.8C467.4,438.8,467.3,439.2,467.3,439.5z M462.4,438.8c-0.2-0.8-0.5-2-1-3.1
				c-0.9-1.9-3-2.4-4.7-1.4c-3.3,1.9-4.9,7.5-3.1,10.9c1.1,2.1,3,2.7,5.1,1.4C461.3,444.9,462.1,442.2,462.4,438.8z"/>
			<path class="st6" d="M594.6,438.4c-1.7,0-3.1,0-4.7,0c-0.1-0.6-0.2-1.2-0.3-1.9c-2.7,0-5.3,0-8.2,0c0,2.4,0,4.9,0,7.5
				c2.7,0,5.4,0,8.2,0c0.1-0.7,0.2-1.3,0.2-2.1c1.5,0,3,0,4.8,0c-0.1,1.4,0,2.8-0.3,4.1c-0.3,1.4-1.4,2.1-2.7,2.1
				c-4.1,0.1-8.2,0.1-12.3,0c-1.9-0.1-2.8-1.2-2.9-3.1c-0.1-3.1-0.1-6.3,0-9.4c0.1-2.1,1.2-3.2,3.4-3.2c3.8-0.1,7.5-0.1,11.3,0
				c2.3,0,3.3,1.2,3.4,3.5C594.7,436.7,594.6,437.5,594.6,438.4z"/>
			<path class="st6" d="M612.7,436.2c-4,0-7.9,0-11.9,0c0,0.7,0,1.2,0,1.9c2.3,0,4.5,0,6.8,0c0,1.3,0,2.5,0,3.8c-2.3,0-4.5,0-6.9,0
				c0,0.9,0,1.5,0,2.4c4.1,0,8.1,0,12.2,0c0,1.3,0,2.5,0,3.8c-5.6,0-11.3,0-17,0c0-5.1,0-10.3,0-15.6c5.5,0,11.1,0,16.8,0
				C612.7,433.7,612.7,434.9,612.7,436.2z"/>
			<path class="st6" d="M473.1,451.5c-1.7,0-3.2,0-5,0c0.5-3,1-5.8,1.4-8.7c0.1-1.1,0-2.3-0.5-3.4c-1.2-3-2.6-5.8-4-8.7
				c-0.2-0.4-0.4-0.9-0.6-1.7c1.9,0,3.5-0.1,5.2,0c0.3,0,0.7,0.7,0.9,1.1c0.8,1.8,1.5,3.6,2.3,5.7c1-1.6,2.1-2.9,2.8-4.4
				c1-2.1,2.4-2.8,4.6-2.5c0.8,0.1,1.5,0,2.6,0c-0.3,0.7-0.5,1.1-0.8,1.5c-1.7,2.7-3.1,5.5-5.1,7.9c-2.5,3.2-2.8,6.8-3.4,10.5
				C473.4,449.8,473.2,450.7,473.1,451.5z"/>
			<path d="M378.9,440.3c-0.8,0-1.3,0-2.1,0c0.5-1,0.9-1.9,1.3-2.8c0.1,0,0.2,0,0.3,0.1C378.6,438.4,378.8,439.3,378.9,440.3z"/>
			<path d="M508.5,444.6c0-3,0-5.6,0-8.5c2.6,0.2,5.2,0.2,7.8,0.6c1.7,0.3,2.4,1.7,2.3,3.4c0,1.7-0.5,3.3-2.3,3.6
				C513.8,444.2,511.2,444.3,508.5,444.6z"/>
			<path d="M435.5,446.8c0.2-1.5,0.4-2.6,0.6-3.9c1.4,0,2.7-0.1,4,0c1.1,0.1,2.2,0.7,1.9,1.8c-0.2,0.8-1.1,1.8-1.8,2
				C438.8,447,437.2,446.8,435.5,446.8z"/>
			<path d="M436.9,437.9c0.2-1.2,0.4-2.3,0.6-3.6c0.9,0,1.8,0,2.7,0c1.1,0,2.1,0.4,2,1.5c-0.1,0.8-1,1.8-1.8,2
				C439.4,438.1,438.2,437.9,436.9,437.9z"/>
			<path d="M462.4,438.8c-0.3,3.4-1,6.1-3.7,7.8c-2,1.3-3.9,0.7-5.1-1.4c-1.8-3.3-0.2-9,3.1-10.9c1.7-1,3.8-0.5,4.7,1.4
				C461.9,436.8,462.1,438,462.4,438.8z"/>
		</g>
		<g>
			<circle class="st7" cx="789.8" cy="100.5" r="12"/>
			<circle class="st8" cx="789.7" cy="100.4" r="8.1"/>
			<g>
				<path class="st9" d="M812.4,102.9v4.3h-2.9V95.6h4.8c1.1,0,1.9,0.1,2.5,0.3s1.1,0.6,1.5,1.2c0.5,0.6,0.7,1.3,0.7,2.1
					c0,0.6-0.1,1.1-0.4,1.7s-0.6,1-1,1.3c-0.4,0.3-0.9,0.5-1.3,0.6s-1,0.1-1.9,0.1L812.4,102.9L812.4,102.9z M812.3,100.8h1.9
					c0.7,0,1.2-0.2,1.5-0.5c0.3-0.3,0.4-0.7,0.4-1.1c0-0.5-0.2-0.9-0.5-1.1s-0.8-0.4-1.5-0.4h-1.8V100.8z"/>
				<path class="st9" d="M825.2,107.4c-1.6,0-2.9-0.6-3.8-1.8c-0.9-1.2-1.3-2.6-1.3-4.3c0-1.7,0.5-3.1,1.4-4.3s2.2-1.7,3.9-1.7
					c1.7,0,3,0.6,3.8,1.8c0.9,1.2,1.3,2.6,1.3,4.2c0,1.7-0.5,3.1-1.3,4.3C828.2,106.8,826.9,107.4,825.2,107.4z M825.2,97.6
					c-1.5,0-2.3,1.3-2.3,3.8s0.8,3.8,2.3,3.8c1.5,0,2.2-1.3,2.2-3.8C827.4,98.9,826.7,97.6,825.2,97.6z"/>
				<path class="st9" d="M846.7,95.6l-3.1,11.7h-2.8l-2-7.7l-1.9,7.7H834l-3.1-11.7h2.9l1.7,7.1c0,0,0,0.2,0.1,0.4
					c0,0.1,0.1,0.2,0.1,0.4l2-7.9h2.6l2,7.9c0-0.1,0.1-0.4,0.2-0.7l1.7-7.1L846.7,95.6L846.7,95.6L846.7,95.6z"/>
				<path class="st9" d="M856.7,97.8h-5.8v2.4h4.6v2.2h-4.6v2.6h5.8v2.3H848V95.6h8.7V97.8z"/>
				<path class="st9" d="M861.3,102.6v4.6h-2.9V95.6h5.4c1,0,1.8,0.1,2.4,0.3s1.1,0.6,1.5,1.2s0.6,1.2,0.6,2c0,1.4-0.7,2.4-2.1,3
					l2.3,5.2h-3.2l-1.9-4.6L861.3,102.6L861.3,102.6L861.3,102.6z M861.3,97.6v3h1.8c0.6,0,1,0,1.3-0.1s0.5-0.3,0.7-0.5
					c0.2-0.3,0.3-0.6,0.3-0.9c0-0.3-0.1-0.6-0.3-0.9c-0.2-0.3-0.4-0.4-0.7-0.5s-0.7-0.1-1.3-0.1L861.3,97.6L861.3,97.6z"/>
			</g>
		</g>
		<g>
			<path class="st5" d="M218.7,13.3c-47.8,24.9-98.4,41.3-151.8,49C55.7,64,49,70.9,44.1,80.3c-0.8,1.6-1.6,3.3-2.4,4.9
				c-4.6,0-6.5-2.2-6.2-6.9c0.7-9.9,5.1-18.3,11.2-25.6c9.3-11,20.5-19.8,34.8-23.8c7-1.9,14.1-1.7,21.1-2.6
				c15.3-1.9,30.5-3.6,45.6-6.5c13.3-2.6,26.7-4.3,40.2-5.8c7.9-0.9,15.9,0.3,23.8-1.6C214.3,11.9,216.6,12.9,218.7,13.3z"/>
			<path class="st5" d="M921.4,85.2c-2-3.6-3.9-7.3-6-10.8c-6.1-9.9-16.2-11.5-26.6-13.3c-34.7-6.1-69-14-101.5-27.9
				C772.8,27,758.7,20,744.4,13.3c8.2-1.5,16.5-0.3,24.7,0.2c12,0.8,24,2.4,35.8,4.6c10.7,2,21.3,4.4,32.2,5.5c10,1,20,3,30,3.4
				c13.9,0.6,25.9,5.4,36.5,13.9c11.8,9.4,20.8,20.7,23.3,36.3C927.6,82.3,925.8,84.3,921.4,85.2z"/>
		</g>
	</g>
	<g>
		<circle class="st10" cx="787.6" cy="248.6" r="33.1"/>
		<circle class="st11" cx="787.6" cy="248.6" r="29"/>
		<g>
			<path class="st12" d="M776,261v-28.8h14.6c3,0,5.3,0.8,6.7,2.3s2.1,3.3,2.1,5.3c0,1.4-0.4,2.7-1.2,3.9c-0.8,1.2-2,2-3.6,2.4
				c3.7,0.9,5.6,3.1,5.6,6.7c0,2.1-0.7,4-2,5.7c-1.3,1.7-4.1,2.5-8.4,2.5L776,261L776,261z M784.1,243.2h4.1c1,0,1.8-0.3,2.2-0.8
				s0.6-1.1,0.6-1.7c0-1.6-1-2.4-3-2.4h-4L784.1,243.2L784.1,243.2L784.1,243.2z M784.1,254.6h4.3c1.1,0,1.8-0.3,2.3-0.8
				s0.8-1.1,0.8-1.8s-0.2-1.3-0.7-1.8s-1.4-0.8-2.7-0.8h-4V254.6z"/>
		</g>
		<circle class="st10" cx="875.3" cy="219.6" r="33.1"/>
		<circle class="st11" cx="875.3" cy="219.6" r="29"/>
		<g>
			<path class="st12" d="M880.7,233.8l-1.6-5.7h-7.7l-1.7,5.7h-7.2l8.9-28.8h9.3l9,28.8H880.7z M872.9,221.9h4.7l-2.3-8.4
				L872.9,221.9z"/>
		</g>
	</g>
	<g>
		<path class="st13" d="M187.6,378.6l-73.4-19.7c-10.4-2.8-16.5-13.4-13.7-23.8l0,0c2.8-10.4,13.4-16.5,23.8-13.7l73.4,19.7
			c10.4,2.8,16.5,13.4,13.7,23.8l0,0C208.6,375.2,197.9,381.3,187.6,378.6z"/>
		<path class="st1" d="M189.3,375l-74.9-20.1c-8.3-2.2-13.2-10.7-11-19l0,0c2.2-8.3,10.7-13.2,19-11l74.9,20.1
			c8.3,2.2,13.2,10.7,11,19l0,0C206.1,372.3,197.6,377.2,189.3,375z"/>
		<path class="st14" d="M121.5,335.6l-2.6,0.1c-0.1-1-0.6-1.6-1.7-1.9c-1.1-0.3-1.8-0.1-2,0.6c-0.1,0.3,0,0.5,0.1,0.8
			c0.2,0.3,0.6,0.5,1.3,0.9c1.2,0.6,2,1,2.5,1.4c0.5,0.4,0.9,0.9,1.1,1.5s0.3,1.3,0.1,2c-0.3,1-0.9,1.8-2,2.4s-2.4,0.6-4,0.1
			c-1.2-0.3-2.2-0.9-2.9-1.6s-1.1-1.7-1.1-2.9l2.8,0.1c0,1.1,0.7,1.9,2,2.3c0.6,0.2,1.2,0.2,1.5,0c0.4-0.1,0.6-0.4,0.7-0.7
			c0.1-0.3,0-0.6-0.2-0.9c-0.2-0.3-0.8-0.6-1.5-1c-1.5-0.7-2.4-1.4-2.9-2.1c-0.5-0.7-0.6-1.6-0.4-2.6c0.3-1,0.9-1.8,1.9-2.3
			c1-0.5,2.1-0.6,3.5-0.2C120,332.3,121.3,333.6,121.5,335.6z"/>
		<path class="st14" d="M132.1,335.7l-0.6,2.3l-3-0.8l-2.5,9.2l-2.9-0.8l2.5-9.2l-3-0.8l0.6-2.3L132.1,335.7z"/>
		<path class="st14" d="M138.4,337.4l0.7,12.5l-3-0.8l-0.1-2.6l-3.9-1l-1.4,2.2l-2.5-0.7l6.9-10.5L138.4,337.4z M133.3,343.6
			l2.6,0.7l-0.2-4.4L133.3,343.6z"/>
		<path class="st14" d="M144.5,346.5l-1.2,4.6l-2.9-0.8l3.1-11.5l5.3,1.4c1,0.3,1.7,0.6,2.3,1c0.5,0.4,0.9,0.9,1.1,1.6
			c0.2,0.7,0.3,1.4,0.1,2.1c-0.4,1.4-1.3,2.2-2.9,2.4l0.9,5.7l-3.1-0.8l-0.6-5.1L144.5,346.5z M145.8,341.6l-0.8,2.9l1.7,0.5
			c0.6,0.1,1,0.2,1.3,0.2c0.3,0,0.6-0.1,0.8-0.3c0.3-0.2,0.4-0.5,0.5-0.8c0.1-0.3,0.1-0.6-0.1-0.9s-0.3-0.5-0.5-0.6
			c-0.2-0.1-0.6-0.3-1.3-0.4L145.8,341.6z"/>
		<path class="st14" d="M163.1,344l-0.6,2.3l-3-0.8l-2.5,9.2l-2.9-0.8l2.5-9.2l-3-0.8l0.6-2.3L163.1,344z"/>
		
			<ellipse transform="matrix(0.2588 -0.9659 0.9659 0.2588 -204.661 453.0981)" class="st11" cx="192.9" cy="359.9" rx="13.2" ry="13.8"/>
	</g>
	<g>
		<path class="st13" d="M183.2,433.2l-73.7-18.4c-10.4-2.6-16.7-13.1-14.1-23.5l0,0c2.6-10.4,13.1-16.7,23.5-14.1l73.7,18.4
			c10.4,2.6,16.7,13.1,14.1,23.5l0,0C204.1,429.5,193.6,435.8,183.2,433.2z"/>
		<path class="st1" d="M184.9,429.6l-75.3-18.8c-8.3-2.1-13.4-10.5-11.3-18.8l0,0c2.1-8.3,10.5-13.4,18.8-11.3l75.3,18.8
			c8.3,2.1,13.4,10.5,11.3,18.8l0,0C201.7,426.7,193.2,431.7,184.9,429.6z"/>
		<path class="st14" d="M117,391.9l-2.8,0.2c-0.1-1.1-0.7-1.7-1.8-2c-1.2-0.3-1.9-0.1-2.1,0.7c-0.1,0.3,0,0.6,0.1,0.8
			c0.2,0.3,0.6,0.6,1.4,0.9c1.3,0.6,2.1,1.1,2.7,1.5s1,1,1.2,1.6c0.3,0.7,0.3,1.4,0.1,2.1c-0.3,1.1-1,2-2.1,2.5
			c-1.1,0.6-2.5,0.7-4.3,0.2c-1.3-0.3-2.4-0.9-3.2-1.7c-0.8-0.8-1.2-1.8-1.2-3l2.9,0.1c0,1.2,0.8,2,2.2,2.4c0.7,0.2,1.2,0.2,1.6,0
			s0.6-0.4,0.7-0.8c0.1-0.4,0-0.7-0.3-1c-0.3-0.3-0.8-0.6-1.6-1c-1.6-0.7-2.6-1.5-3.2-2.2s-0.7-1.6-0.4-2.7c0.3-1.1,0.9-1.9,1.9-2.5
			s2.2-0.6,3.7-0.3C115.3,388.5,116.7,389.8,117,391.9z"/>
		<path class="st14" d="M128.6,394.5l-6.1-1.5l-0.6,2.5l4.8,1.2l-0.6,2.3l-4.8-1.2l-0.7,2.7l6.1,1.5l-0.6,2.4l-9.2-2.3l3.1-12.3
			l9.2,2.3L128.6,394.5z"/>
		<path class="st14" d="M131.6,403.2l5.1,1.3l-0.6,2.4l-8.2-2l3.1-12.3l3.1,0.8L131.6,403.2z"/>
		<path class="st14" d="M149.4,399.6l-6.1-1.5l-0.6,2.5l4.8,1.2l-0.6,2.3l-4.8-1.2l-0.7,2.7l6.1,1.5l-0.6,2.4l-9.2-2.3l3.1-12.3
			l9.2,2.3L149.4,399.6z"/>
		<path class="st14" d="M161,404.9l-3.2-0.6c0.4-1.7-0.1-2.8-1.5-3.1c-1.6-0.4-2.7,0.8-3.4,3.4c-0.4,1.5-0.4,2.6-0.1,3.3
			c0.3,0.7,0.8,1.1,1.6,1.3c1.3,0.3,2.2-0.3,2.9-1.8l2.9,0.9c-0.6,1.4-1.4,2.4-2.6,2.9s-2.4,0.6-3.8,0.3c-1.7-0.4-2.9-1.3-3.7-2.7
			c-0.8-1.4-0.9-3.1-0.4-5c0.5-1.9,1.4-3.2,2.7-4.2c1.3-0.9,2.9-1.2,4.7-0.7C160.1,399.6,161.4,401.6,161,404.9z"/>
		<path class="st14" d="M172.1,402.8l-0.6,2.4l-3.2-0.8l-2.5,9.8l-3.1-0.8l2.5-9.9l-3.2-0.8l0.6-2.4L172.1,402.8z"/>
		
			<ellipse transform="matrix(0.2419 -0.9703 0.9703 0.2419 -259.4484 496.9001)" class="st11" cx="188.3" cy="414.5" rx="13.2" ry="13.8"/>
	</g>
	<g>
		<path class="st3" d="M75.6,248.2H178c5.4,0,9.8-4.4,9.8-9.8v-25.6c0-5.4-4.4-9.8-9.8-9.8H75.6c-5.4,0-9.8,4.4-9.8,9.8v25.6
			C65.8,243.8,70.2,248.2,75.6,248.2z"/>
		<path class="st3" d="M149.4,276.8V174.4c0-5.4-4.4-9.8-9.8-9.8H114c-5.4,0-9.8,4.4-9.8,9.8v102.4c0,5.4,4.4,9.8,9.8,9.8h25.6
			C145,286.6,149.4,282.2,149.4,276.8z"/>
	</g>
	<g>
		<path class="st15" d="M79.2,245.8h95.1c5.4,0,9.8-4.4,9.8-9.8v-20.9c0-5.4-4.4-9.8-9.8-9.8H79.2c-5.4,0-9.8,4.4-9.8,9.8V236
			C69.4,241.4,73.8,245.8,79.2,245.8z"/>
		<path class="st15" d="M147,272.4v-93.8c0-5.4-4.4-9.8-9.8-9.8h-20.9c-5.4,0-9.8,4.4-9.8,9.8v93.8c0,5.4,4.4,9.8,9.8,9.8h20.9
			C142.6,282.2,147,277.9,147,272.4z"/>
	</g>
	<g>
		<path class="st11" d="M81.8,243.9h90c5.4,0,9.8-4.4,9.8-9.8V217c0-5.4-4.4-9.8-9.8-9.8h-90c-5.4,0-9.8,4.4-9.8,9.8v17.2
			C72,239.5,76.4,243.9,81.8,243.9z"/>
		<path class="st11" d="M145.3,270.6v-90c0-5.4-4.4-9.8-9.8-9.8h-17.3c-5.4,0-9.8,4.4-9.8,9.8v90c0,5.4,4.4,9.8,9.8,9.8h17.3
			C140.9,280.4,145.3,276,145.3,270.6z"/>
		<circle class="st16" cx="126.8" cy="225.6" r="13.6"/>
	</g>
	<g>
		<path class="st16" d="M125.3,175.7l-8.6,14.8c-0.6,1.1,0.2,2.5,1.5,2.5h17.1c1.3,0,2.1-1.4,1.5-2.5l-8.6-14.8
			C127.6,174.6,126,174.6,125.3,175.7z"/>
		<path class="st16" d="M176.7,224.1l-14.8-8.5c-1.1-0.6-2.5,0.2-2.5,1.5v17.1c0,1.3,1.4,2.1,2.5,1.5l14.8-8.5
			C177.8,226.4,177.8,224.7,176.7,224.1z"/>
		<path class="st16" d="M76.9,227l14.8,8.5c1.1,0.6,2.5-0.2,2.5-1.5V217c0-1.3-1.4-2.1-2.5-1.5l-14.8,8.5
			C75.8,224.7,75.8,226.4,76.9,227z"/>
		<path class="st16" d="M128.3,275.4l8.6-14.8c0.6-1.1-0.2-2.5-1.5-2.5h-17.1c-1.3,0-2.1,1.4-1.5,2.5l8.6,14.8
			C126,276.6,127.6,276.6,128.3,275.4z"/>
	</g>
</g>
</svg>
