<?xml version="1.0" encoding="utf-8"?>
<!-- Generator: Adobe Illustrator 24.0.2, SVG Export Plug-In . SVG Version: 6.00 Build 0)  -->
<svg version="1.1" id="Layer_1" xmlns="http://www.w3.org/2000/svg" xmlns:xlink="http://www.w3.org/1999/xlink" x="0px" y="0px"
	 viewBox="0 0 183.5 72.7" style="enable-background:new 0 0 183.5 72.7;" xml:space="preserve">
<style type="text/css">
	.st0{fill:#606060;}
</style>
<path class="st0" d="M183.5,0.8c-47.8,24.9-98.4,41.3-151.8,49c-11.2,1.6-17.9,8.6-22.8,18c-0.8,1.6-1.6,3.3-2.4,4.9
	c-4.6,0-6.5-2.2-6.2-6.9C1,55.9,5.5,47.5,11.6,40.2c9.3-11,20.5-19.8,34.8-23.8c7-1.9,14.1-1.7,21.1-2.6c15.3-1.9,30.5-3.6,45.6-6.5
	c13.3-2.6,26.7-4.3,40.2-5.8c7.9-0.9,15.9,0.3,23.8-1.6C179.1-0.6,181.4,0.4,183.5,0.8z"/>
</svg>
